<svg xmlns="http://www.w3.org/2000/svg" width="40" height="35" viewBox="0 0 85 75">
  <g id="Group_7" data-name="Group 7" transform="translate(-8 -15)">
    <path id="Intersection_2" data-name="Intersection 2" d="M-301.207-1723a35.652,35.652,0,0,1-.794-7.5,35.5,35.5,0,0,1,35.5-35.5h14a35.5,35.5,0,0,1,35.5,35.5,35.652,35.652,0,0,1-.794,7.5Z" transform="translate(310 1813)" fill="#eff4fc"/>
    <path id="Intersection_3" data-name="Intersection 3" d="M-301.225-1724a34.81,34.81,0,0,1-.775-7.325A34.675,34.675,0,0,1-267.325-1766h6.712a34.674,34.674,0,0,1,34.674,34.674,34.813,34.813,0,0,1-.775,7.325Z" transform="translate(316.939 1814)" fill="#ddebff"/>
    <g id="Intersection_4" data-name="Intersection 4" transform="translate(310 1813)" fill="none">
      <path d="M-301.207-1723a35.652,35.652,0,0,1-.794-7.5,35.5,35.5,0,0,1,35.5-35.5h14a35.5,35.5,0,0,1,35.5,35.5,35.652,35.652,0,0,1-.794,7.5Z" stroke="none"/>
      <path d="M -221.1923980712891 -1726.999633789062 C -221.0643920898438 -1728.159301757812 -220.9999084472656 -1729.329223632812 -220.9999084472656 -1730.500244140625 C -220.9999084472656 -1734.75439453125 -221.8322143554688 -1738.879150390625 -223.4737091064453 -1742.759887695312 C -225.06005859375 -1746.510375976562 -227.3318939208984 -1749.879516601562 -230.2261199951172 -1752.773681640625 C -233.120361328125 -1755.667846679688 -236.4895782470703 -1757.939697265625 -240.2401580810547 -1759.526123046875 C -244.1211395263672 -1761.167602539062 -248.2460784912109 -1761.999877929688 -252.5004119873047 -1761.999877929688 L -266.4999084472656 -1761.999877929688 C -270.7542419433594 -1761.999877929688 -274.8791809082031 -1761.167602539062 -278.7601623535156 -1759.526123046875 C -282.5107421875 -1757.939697265625 -285.8799438476562 -1755.667846679688 -288.774169921875 -1752.773681640625 C -291.6683959960938 -1749.879516601562 -293.9402465820312 -1746.510375976562 -295.526611328125 -1742.759887695312 C -297.1680908203125 -1738.879150390625 -298.0003967285156 -1734.75439453125 -298.0003967285156 -1730.500244140625 C -298.0003967285156 -1729.329223632812 -297.9359130859375 -1728.159301757812 -297.8078918457031 -1726.999633789062 L -221.1923980712891 -1726.999633789062 M -217.7937622070312 -1722.999633789062 L -301.20654296875 -1722.999633789062 C -301.7264099121094 -1725.417114257812 -302.0003967285156 -1727.927368164062 -302.0003967285156 -1730.500244140625 C -302.0003967285156 -1750.105834960938 -286.1064147949219 -1765.999877929688 -266.4999084472656 -1765.999877929688 L -252.5004119873047 -1765.999877929688 C -232.8939056396484 -1765.999877929688 -216.9999084472656 -1750.105834960938 -216.9999084472656 -1730.500244140625 C -216.9999084472656 -1727.927368164062 -217.2738952636719 -1725.417114257812 -217.7937622070312 -1722.999633789062 Z" stroke="none" fill="#6ca1ff"/>
    </g>
    <rect id="Rectangle_17" data-name="Rectangle 17" width="45" height="45" rx="22.5" transform="translate(28 15)" fill="#eff4fc"/>
    <rect id="Rectangle_16" data-name="Rectangle 16" width="39" height="39" rx="19.5" transform="translate(33 16)" fill="#ddebff"/>
    <g id="Rectangle_13" data-name="Rectangle 13" transform="translate(28 15)" fill="none" stroke="#6ca1ff" stroke-width="4">
      <rect width="45" height="45" rx="22.5" stroke="none"/>
      <rect x="2" y="2" width="41" height="41" rx="20.5" fill="none"/>
    </g>
  </g>
</svg>
