<svg xmlns="http://www.w3.org/2000/svg" xmlns:xlink="http://www.w3.org/1999/xlink" width="50" height="30" viewBox="0 0 197 138">
  <defs>
    <linearGradient id="linear-gradient" x1="0.366" x2="1.144" y2="0.805" gradientUnits="objectBoundingBox">
      <stop offset="0" stop-color="#747272"/>
      <stop offset="1" stop-color="#fff"/>
    </linearGradient>
  </defs>
  <g id="Group_5" data-name="Group 5" transform="translate(-30 -62)">
    <path id="Screen" fill="#222" d="M10,0H167a10,10,0,0,1,10,10V132a0,0,0,0,1,0,0H0a0,0,0,0,1,0,0V10A10,10,0,0,1,10,0Z" transform="translate(40 62)"/>
    <path id="Bottom" fill="#e8e8e8" d="M1.333,0H195.667A1.333,1.333,0,0,1,197,1.333v0A6.667,6.667,0,0,1,190.333,8H6.667A6.667,6.667,0,0,1,0,1.333v0A1.333,1.333,0,0,1,1.333,0Z" transform="translate(30 192)"/>
    <circle id="Cam" cx="1.5" cy="1.5" r="1.5" fill="#191919" transform="translate(127 64)"/>
    <path id="Glare" fill="url(#linear-gradient)" d="M-220.526-1347.4H-112a10,10,0,0,1,10,10v108.526Z" opacity="0.05" transform="translate(319 1409.398)"/>
    <g id="Group_2" data-name="Group 2">
      <rect id="Rectangle_4" width="50" height="3" fill="#989898" data-name="Rectangle 4" rx="1.5" transform="translate(55 80)"/>
      <rect id="Rectangle_7" width="70" height="3" fill="#989898" data-name="Rectangle 7" rx="1.5" transform="translate(55 89)"/>
      <rect id="Rectangle_5" width="29" height="3" fill="#989898" data-name="Rectangle 5" rx="1.5" transform="translate(110 80)"/>
      <rect id="Rectangle_6" width="45" height="3" fill="#989898" data-name="Rectangle 6" rx="1.5" transform="translate(130 89)"/>
    </g>
    <g id="Group_3" data-name="Group 3">
      <rect id="Rectangle_9" width="38" height="3" fill="#eb5757" data-name="Rectangle 9" rx="1.5" transform="translate(55 98)"/>
      <rect id="Rectangle_8" width="55" height="3" fill="#eb5757" data-name="Rectangle 8" rx="1.5" transform="translate(98 98)"/>
      <rect id="Rectangle_9-2" width="23" height="3" fill="#eb5757" data-name="Rectangle 9" rx="1.5" transform="translate(55 107)"/>
      <rect id="Rectangle_8-2" width="32" height="3" fill="#eb5757" data-name="Rectangle 8" rx="1.5" transform="translate(83 107)"/>
      <rect id="Rectangle_10" width="69" height="3" fill="#eb5757" data-name="Rectangle 10" rx="1.5" transform="translate(120 107)"/>
    </g>
    <g id="Group_4" data-name="Group 4">
      <rect id="Rectangle_9-3" width="48" height="3" fill="#6ca1ff" data-name="Rectangle 9" rx="1.5" transform="translate(55 116)"/>
      <rect id="Rectangle_8-3" width="55" height="3" fill="#6ca1ff" data-name="Rectangle 8" rx="1.5" transform="translate(108 116)"/>
      <rect id="Rectangle_9-4" width="36" height="3" fill="#6ca1ff" data-name="Rectangle 9" rx="1.5" transform="translate(55 125)"/>
      <rect id="Rectangle_8-4" width="37" height="3" fill="#6ca1ff" data-name="Rectangle 8" rx="1.5" transform="translate(96 125)"/>
    </g>
  </g>
</svg>
